<svg width="123" height="46" viewBox="0 0 123 46" fill="none" xmlns="http://www.w3.org/2000/svg">
<path d="M10.1749 37L5.05492 30.2746V37H1.34508V21.7702H5.05492V28.4522L10.1315 21.7702H14.4922L8.59119 29.2332L14.7092 37H10.1749ZM27.8837 30.7519C27.8837 31.099 27.862 31.4606 27.8186 31.8366H19.4227C19.4806 32.5887 19.7192 33.1672 20.1386 33.5722C20.5725 33.9627 21.1005 34.158 21.7224 34.158C22.648 34.158 23.2916 33.7675 23.6532 32.9864H27.6017C27.3992 33.7819 27.0304 34.4979 26.4953 35.1342C25.9746 35.7706 25.3165 36.2696 24.521 36.6312C23.7255 36.9928 22.836 37.1736 21.8525 37.1736C20.6666 37.1736 19.6107 36.9205 18.6851 36.4142C17.7594 35.908 17.0363 35.1849 16.5156 34.2447C15.9949 33.3046 15.7346 32.2054 15.7346 30.9471C15.7346 29.6888 15.9877 28.5896 16.4939 27.6495C17.0146 26.7094 17.7377 25.9862 18.6634 25.48C19.589 24.9738 20.6521 24.7207 21.8525 24.7207C23.0241 24.7207 24.0654 24.9666 24.9766 25.4583C25.8878 25.9501 26.5965 26.6515 27.1027 27.5627C27.6234 28.4739 27.8837 29.5369 27.8837 30.7519ZM24.0871 29.7756C24.0871 29.1392 23.8702 28.633 23.4363 28.2569C23.0024 27.8809 22.46 27.6929 21.8092 27.6929C21.1872 27.6929 20.6593 27.8737 20.2254 28.2353C19.806 28.5968 19.5457 29.1103 19.4444 29.7756H24.0871ZM37.2171 24.7641C38.6345 24.7641 39.7627 25.2269 40.6015 26.1525C41.4549 27.0637 41.8815 28.322 41.8815 29.9275V37H38.1934V30.4264C38.1934 29.6165 37.9837 28.9873 37.5642 28.539C37.1448 28.0906 36.5807 27.8664 35.872 27.8664C35.1633 27.8664 34.5993 28.0906 34.1798 28.539C33.7604 28.9873 33.5507 29.6165 33.5507 30.4264V37H29.8409V24.8942H33.5507V26.4997C33.9267 25.9645 34.4329 25.5451 35.0693 25.2414C35.7057 24.9232 36.4216 24.7641 37.2171 24.7641ZM47.9307 33.941H53.1809V37H43.787V34.0495L48.8202 27.9532H43.8303V24.8942H53.0724V27.8447L47.9307 33.941ZM57.088 23.6359C56.4371 23.6359 55.902 23.4479 55.4825 23.0719C55.0776 22.6814 54.8751 22.2041 54.8751 21.64C54.8751 21.0615 55.0776 20.5842 55.4825 20.2081C55.902 19.8176 56.4371 19.6224 57.088 19.6224C57.7244 19.6224 58.245 19.8176 58.65 20.2081C59.0694 20.5842 59.2792 21.0615 59.2792 21.64C59.2792 22.2041 59.0694 22.6814 58.65 23.0719C58.245 23.4479 57.7244 23.6359 57.088 23.6359ZM58.932 24.8942V37H55.2222V24.8942H58.932ZM73.032 30.7519C73.032 31.099 73.0103 31.4606 72.967 31.8366H64.571C64.6289 32.5887 64.8675 33.1672 65.287 33.5722C65.7209 33.9627 66.2488 34.158 66.8707 34.158C67.7963 34.158 68.4399 33.7675 68.8015 32.9864H72.75C72.5475 33.7819 72.1787 34.4979 71.6436 35.1342C71.1229 35.7706 70.4648 36.2696 69.6693 36.6312C68.8738 36.9928 67.9844 37.1736 67.0009 37.1736C65.8149 37.1736 64.759 36.9205 63.8334 36.4142C62.9077 35.908 62.1846 35.1849 61.6639 34.2447C61.1432 33.3046 60.8829 32.2054 60.8829 30.9471C60.8829 29.6888 61.136 28.5896 61.6422 27.6495C62.1629 26.7094 62.8861 25.9862 63.8117 25.48C64.7374 24.9738 65.8004 24.7207 67.0009 24.7207C68.1724 24.7207 69.2137 24.9666 70.1249 25.4583C71.0361 25.9501 71.7448 26.6515 72.251 27.5627C72.7717 28.4739 73.032 29.5369 73.032 30.7519ZM69.2354 29.7756C69.2354 29.1392 69.0185 28.633 68.5846 28.2569C68.1507 27.8809 67.6083 27.6929 66.9575 27.6929C66.3355 27.6929 65.8076 27.8737 65.3737 28.2353C64.9543 28.5968 64.694 29.1103 64.5927 29.7756H69.2354ZM85.5369 25.5776V27.8068H80.8834V30.2149H84.3654V32.379H80.8834V37H78.101V25.5776H85.5369ZM91.1322 37.1302C90.2427 37.1302 89.44 36.9403 88.724 36.5607C88.019 36.181 87.4603 35.6386 87.0481 34.9336C86.6467 34.2285 86.4461 33.4041 86.4461 32.4603C86.4461 31.5275 86.6522 30.7085 87.0644 30.0034C87.4766 29.2875 88.0406 28.7397 88.7566 28.36C89.4725 27.9803 90.2752 27.7905 91.1647 27.7905C92.0542 27.7905 92.8569 27.9803 93.5729 28.36C94.2888 28.7397 94.8529 29.2875 95.2651 30.0034C95.6773 30.7085 95.8834 31.5275 95.8834 32.4603C95.8834 33.3932 95.6718 34.2176 95.2488 34.9336C94.8366 35.6386 94.2671 36.181 93.5403 36.5607C92.8244 36.9403 92.0217 37.1302 91.1322 37.1302ZM91.1322 34.722C91.6637 34.722 92.1139 34.5268 92.4827 34.1363C92.8623 33.7458 93.0522 33.1871 93.0522 32.4603C93.0522 31.7336 92.8678 31.1749 92.499 30.7844C92.141 30.3939 91.6962 30.1986 91.1647 30.1986C90.6223 30.1986 90.1722 30.3939 89.8142 30.7844C89.4562 31.1641 89.2773 31.7227 89.2773 32.4603C89.2773 33.1871 89.4508 33.7458 89.7979 34.1363C90.1559 34.5268 90.6006 34.722 91.1322 34.722ZM101.492 37.1302C100.603 37.1302 99.8001 36.9403 99.0842 36.5607C98.3791 36.181 97.8205 35.6386 97.4083 34.9336C97.0069 34.2285 96.8062 33.4041 96.8062 32.4603C96.8062 31.5275 97.0123 30.7085 97.4245 30.0034C97.8367 29.2875 98.4008 28.7397 99.1167 28.36C99.8327 27.9803 100.635 27.7905 101.525 27.7905C102.414 27.7905 103.217 27.9803 103.933 28.36C104.649 28.7397 105.213 29.2875 105.625 30.0034C106.037 30.7085 106.244 31.5275 106.244 32.4603C106.244 33.3932 106.032 34.2176 105.609 34.9336C105.197 35.6386 104.627 36.181 103.9 36.5607C103.185 36.9403 102.382 37.1302 101.492 37.1302ZM101.492 34.722C102.024 34.722 102.474 34.5268 102.843 34.1363C103.223 33.7458 103.412 33.1871 103.412 32.4603C103.412 31.7336 103.228 31.1749 102.859 30.7844C102.501 30.3939 102.056 30.1986 101.525 30.1986C100.983 30.1986 100.532 30.3939 100.174 30.7844C99.8164 31.1641 99.6374 31.7227 99.6374 32.4603C99.6374 33.1871 99.811 33.7458 100.158 34.1363C100.516 34.5268 100.961 34.722 101.492 34.722ZM107.166 32.4441C107.166 31.5112 107.34 30.6922 107.687 29.9871C108.045 29.282 108.528 28.7397 109.135 28.36C109.743 27.9803 110.421 27.7905 111.169 27.7905C111.766 27.7905 112.308 27.9153 112.796 28.1647C113.295 28.4142 113.686 28.7505 113.968 29.1736V24.9593H116.75V37H113.968V35.6983C113.707 36.1322 113.333 36.4793 112.845 36.7397C112.368 37 111.809 37.1302 111.169 37.1302C110.421 37.1302 109.743 36.9403 109.135 36.5607C108.528 36.1702 108.045 35.6224 107.687 34.9173C107.34 34.2014 107.166 33.3769 107.166 32.4441ZM113.968 32.4603C113.968 31.7661 113.773 31.2183 113.382 30.8169C113.002 30.4156 112.536 30.2149 111.983 30.2149C111.429 30.2149 110.958 30.4156 110.567 30.8169C110.187 31.2075 109.998 31.7498 109.998 32.4441C109.998 33.1383 110.187 33.6915 110.567 34.1037C110.958 34.5051 111.429 34.7058 111.983 34.7058C112.536 34.7058 113.002 34.5051 113.382 34.1037C113.773 33.7024 113.968 33.1546 113.968 32.4603Z" fill="black"/>
<path d="M23.373 16.9153C23.373 2.11258 51.169 2.79555 51.1697 16.9153L23.373 16.9153Z" fill="#FF2253" stroke="#FF2253" stroke-width="3.38983"/>
<circle cx="36.9326" cy="4.71186" r="2.71186" fill="#FF2253"/>
</svg>
