<svg width="11" height="11" viewBox="0 0 11 11" fill="none" xmlns="http://www.w3.org/2000/svg">
<path d="M9.02344 6.70833C9.22038 6.70833 9.39942 6.58301 9.45313 6.38607L10.2946 2.66211C10.3483 2.39355 10.1514 2.125 9.86491 2.125H2.84668L2.68555 1.33724C2.63184 1.1403 2.4528 0.979166 2.25586 0.979166H0.429688C0.179036 0.979166 0 1.17611 0 1.40885V1.69531C0 1.94596 0.179036 2.125 0.429688 2.125H1.66504L2.9362 8.28385C2.61393 8.46289 2.39909 8.80306 2.4349 9.21484C2.4528 9.71615 2.86458 10.1279 3.38379 10.1458C3.95671 10.1816 4.4401 9.71615 4.4401 9.14323C4.4401 8.87467 4.31478 8.62402 4.13574 8.42708H7.87761C7.69857 8.62402 7.57324 8.89258 7.59115 9.17904C7.59115 9.71615 8.03874 10.1458 8.57585 10.1458C9.13086 10.1637 9.59636 9.71615 9.59636 9.14323C9.59636 8.74935 9.36361 8.40918 9.02344 8.24805L9.11296 7.81836C9.18457 7.5498 8.96973 7.28125 8.70117 7.28125H3.903L3.77767 6.70833H9.02344ZM7.30469 3.98698C7.44792 3.98698 7.59115 4.13021 7.59115 4.27344V4.5599C7.59115 4.72103 7.44792 4.84635 7.30469 4.84635H6.44531V5.5625C6.44531 5.72363 6.30208 5.84896 6.15886 5.84896H5.8724C5.71126 5.84896 5.58594 5.72363 5.58594 5.5625V4.84635H4.72656C4.56543 4.84635 4.4401 4.72103 4.4401 4.5599V4.27344C4.4401 4.13021 4.56543 3.98698 4.72656 3.98698H5.58594V3.27083C5.58594 3.1276 5.71126 2.98437 5.8724 2.98437H6.15886C6.30208 2.98437 6.44531 3.1276 6.44531 3.27083V3.98698H7.30469Z" fill="#4ACA94"/>
</svg>
