<svg width="20" height="20" viewBox="0 0 20 20" fill="none" xmlns="http://www.w3.org/2000/svg">
<path d="M13.57 17.3177C13.57 17.7722 11.9694 18.1406 9.99495 18.1406C8.02052 18.1406 6.41992 17.7722 6.41992 17.3177C6.41992 16.8633 8.02052 16.4949 9.99495 16.4949C11.9694 16.4949 13.57 16.8633 13.57 17.3177Z" fill="#A0D6ED"/>
<path fill-rule="evenodd" clip-rule="evenodd" d="M12.616 18.3058C11.9303 18.4636 11.0037 18.5574 9.99463 18.5574C8.98558 18.5574 8.05898 18.4636 7.37324 18.3058C7.03371 18.2276 6.73018 18.1287 6.50138 18.0042C6.38721 17.942 6.27198 17.8631 6.18083 17.7606C6.0874 17.6555 6.00293 17.5056 6.00293 17.3179C6.00293 17.1302 6.0874 16.9803 6.18083 16.8752C6.27198 16.7727 6.38721 16.6937 6.50138 16.6316C6.73018 16.5071 7.03371 16.4081 7.37324 16.33C8.05898 16.1722 8.98558 16.0784 9.99463 16.0784C11.0037 16.0784 11.9303 16.1722 12.616 16.33C12.9555 16.4081 13.2591 16.5071 13.4879 16.6316C13.6021 16.6937 13.7173 16.7727 13.8084 16.8752C13.9019 16.9803 13.9863 17.1302 13.9863 17.3179C13.9863 17.5056 13.9019 17.6555 13.8084 17.7606C13.7173 17.8631 13.6021 17.942 13.4879 18.0042C13.2591 18.1287 12.9555 18.2276 12.616 18.3058ZM9.99463 18.1407C11.9691 18.1407 13.5697 17.7723 13.5697 17.3179C13.5697 16.8634 11.9691 16.495 9.99463 16.495C8.02019 16.495 6.4196 16.8634 6.4196 17.3179C6.4196 17.7723 8.02019 18.1407 9.99463 18.1407Z" fill="#377894"/>
<path d="M10.7869 17.2414C10.7869 17.5007 9.87337 17.711 8.74647 17.711C7.61958 17.711 6.70605 17.5007 6.70605 17.2414C6.70605 16.982 7.61958 16.7717 8.74647 16.7717C9.87337 16.7717 10.7869 16.982 10.7869 17.2414Z" fill="#D7F3FF"/>
<path d="M9.67383 9.80819C9.67383 9.62841 9.81957 9.48267 9.99935 9.48267C10.1791 9.48267 10.3249 9.62841 10.3249 9.80819V16.784C10.3249 16.9638 10.1791 17.1096 9.99935 17.1096C9.81957 17.1096 9.67383 16.9638 9.67383 16.784V9.80819Z" fill="#A0D6ED"/>
<path fill-rule="evenodd" clip-rule="evenodd" d="M10.7422 9.80811V16.784C10.7422 17.1939 10.4099 17.5262 10 17.5262C9.5901 17.5262 9.25781 17.1939 9.25781 16.784V9.80811C9.25781 9.39821 9.5901 9.06592 10 9.06592C10.4099 9.06592 10.7422 9.39821 10.7422 9.80811ZM10 9.48258C9.82022 9.48258 9.67448 9.62833 9.67448 9.80811V16.784C9.67448 16.9637 9.82022 17.1095 10 17.1095C10.1798 17.1095 10.3255 16.9637 10.3255 16.784V9.80811C10.3255 9.62833 10.1798 9.48258 10 9.48258Z" fill="#649DB6"/>
<path fill-rule="evenodd" clip-rule="evenodd" d="M9.8431 12.3047C9.95816 12.3047 10.0514 12.398 10.0514 12.513V14.4661C10.0514 14.5812 9.95816 14.6745 9.8431 14.6745C9.72804 14.6745 9.63477 14.5812 9.63477 14.4661V12.513C9.63477 12.398 9.72804 12.3047 9.8431 12.3047Z" fill="#C8EFFF"/>
<path d="M6.40297 2.7605H13.5816L14.4727 8.01608C14.7552 9.15451 14.056 9.986 12.9398 10.5675C11.9039 11.1073 11.1622 11.2118 9.99228 11.2118C8.82234 11.2118 8.08816 11.0926 7.04474 10.5675C6.2937 10.1896 5.22395 9.44097 5.51189 8.01608L6.40297 2.7605Z" fill="#BBE9FD"/>
<path fill-rule="evenodd" clip-rule="evenodd" d="M5.99189 2.69077C6.02586 2.49038 6.19945 2.34375 6.40269 2.34375H13.5813C13.7845 2.34375 13.9581 2.49038 13.9921 2.69077L14.8807 7.9315C15.0446 8.60928 14.9176 9.21565 14.5783 9.73003C14.2458 10.234 13.7246 10.6283 13.1321 10.937C12.0181 11.5174 11.2043 11.6284 9.992 11.6284C8.77436 11.6284 7.97242 11.5009 6.85716 10.9397C6.46099 10.7403 5.94223 10.4254 5.56125 9.94235C5.16853 9.44439 4.93397 8.78052 5.10186 7.94012L5.99189 2.69077ZM5.51161 8.016C5.22367 9.44089 6.29341 10.1895 7.04446 10.5675C8.08788 11.0925 8.82206 11.2117 9.992 11.2117C11.1619 11.2117 11.9036 11.1072 12.9395 10.5675C14.0557 9.98592 14.7549 9.15443 14.4724 8.016L13.5813 2.76042H6.40269L5.51161 8.016Z" fill="#6BB3D1"/>
<path d="M9.99228 11.2119C11.1622 11.2119 11.9039 11.1073 12.9398 10.5676C14.056 9.98608 14.7552 9.15459 14.4727 8.01615L14.1691 6.22559H5.81548L5.51189 8.01615C5.22395 9.44105 6.2937 10.1897 7.04474 10.5676C8.08816 11.0927 8.82234 11.2119 9.99228 11.2119Z" fill="#99130C"/>
<path fill-rule="evenodd" clip-rule="evenodd" d="M14.1688 6.2255L14.4724 8.01607C14.7549 9.1545 14.0557 9.98599 12.9395 10.5675C11.9036 11.1073 11.1619 11.2118 9.992 11.2118C8.82206 11.2118 8.08788 11.0926 7.04446 10.5675C6.29341 10.1896 5.22367 9.44096 5.51161 8.01607L5.8152 6.2255H14.1688ZM5.10186 7.94019C4.93397 8.78059 5.16853 9.44446 5.56125 9.94242C5.94223 10.4255 6.46099 10.7404 6.85716 10.9397C7.97242 11.501 8.77436 11.6285 9.992 11.6285C11.2043 11.6285 12.0181 11.5174 13.1321 10.9371C13.7246 10.6283 14.2458 10.234 14.5783 9.7301C14.9176 9.21572 15.0446 8.60935 14.8807 7.93158L14.5796 6.15585C14.5456 5.95547 14.372 5.80884 14.1688 5.80884H5.8152C5.61196 5.80884 5.43837 5.95547 5.4044 6.15585L5.10186 7.94019Z" fill="#5B0501"/>
<path d="M8.47586 9.45713C8.47586 10.1994 7.84435 10.3714 7.14774 10.1863C6.45112 10.0012 5.84565 9.36598 5.77404 8.68888C5.70243 8.01177 5.93679 7.3347 6.63993 7.49098C7.34306 7.64727 8.47586 8.71488 8.47586 9.45713Z" fill="#780A04"/>
<path d="M13.57 2.68247C13.57 3.13692 11.9694 3.50532 9.99495 3.50532C8.02052 3.50532 6.41992 3.13692 6.41992 2.68247C6.41992 2.22802 8.02052 1.85962 9.99495 1.85962C11.9694 1.85962 13.57 2.22802 13.57 2.68247Z" fill="#D7F3FF"/>
<path fill-rule="evenodd" clip-rule="evenodd" d="M12.616 3.67028C11.9303 3.82811 11.0037 3.9219 9.99463 3.9219C8.98558 3.9219 8.05898 3.82811 7.37324 3.67028C7.03371 3.59213 6.73018 3.49317 6.50138 3.36866C6.38721 3.30653 6.27198 3.22758 6.18083 3.12507C6.0874 3.01998 6.00293 2.87012 6.00293 2.68239C6.00293 2.49465 6.0874 2.3448 6.18083 2.23971C6.27198 2.13719 6.38721 2.05824 6.50138 1.99611C6.73018 1.87161 7.03371 1.77264 7.37324 1.6945C8.05898 1.53666 8.98558 1.44287 9.99463 1.44287C11.0037 1.44287 11.9303 1.53666 12.616 1.6945C12.9555 1.77264 13.2591 1.87161 13.4879 1.99611C13.6021 2.05824 13.7173 2.13719 13.8084 2.23971C13.9019 2.3448 13.9863 2.49465 13.9863 2.68239C13.9863 2.87012 13.9019 3.01998 13.8084 3.12507C13.7173 3.22758 13.6021 3.30653 13.4879 3.36866C13.2591 3.49317 12.9555 3.59213 12.616 3.67028ZM9.99463 3.50524C11.9691 3.50524 13.5697 3.13684 13.5697 2.68239C13.5697 2.22794 11.9691 1.85954 9.99463 1.85954C8.02019 1.85954 6.4196 2.22794 6.4196 2.68239C6.4196 3.13684 8.02019 3.50524 9.99463 3.50524Z" fill="#6BB3D1"/>
<path fill-rule="evenodd" clip-rule="evenodd" d="M9.99905 2.24954C10.0008 2.13449 10.0955 2.04268 10.2106 2.04446C11.5816 2.06572 12.5027 2.40687 12.815 2.59521C12.9135 2.65463 12.9452 2.78268 12.8857 2.8812C12.8263 2.97973 12.6983 3.01142 12.5998 2.95199C12.3651 2.81047 11.5206 2.48149 10.2041 2.46108C10.0891 2.45929 9.99727 2.36458 9.99905 2.24954Z" fill="white"/>
<path d="M13.61 8.45125C13.61 8.7389 13.3768 8.97209 13.0892 8.97209C12.8015 8.97209 12.5684 8.7389 12.5684 8.45125C12.5684 8.16361 12.8015 7.93042 13.0892 7.93042C13.3768 7.93042 13.61 8.16361 13.61 8.45125Z" fill="#E3160C"/>
<path d="M12.8154 9.68164C12.8154 9.88659 12.6493 10.0527 12.4443 10.0527C12.2394 10.0527 12.0732 9.88659 12.0732 9.68164C12.0732 9.47669 12.2394 9.31055 12.4443 9.31055C12.6493 9.31055 12.8154 9.47669 12.8154 9.68164Z" fill="#E3160C"/>
<path d="M11.8063 9.58089C11.8063 9.7364 11.6803 9.86247 11.5247 9.86247C11.3692 9.86247 11.2432 9.7364 11.2432 9.58089C11.2432 9.42538 11.3692 9.29932 11.5247 9.29932C11.6803 9.29932 11.8063 9.42538 11.8063 9.58089Z" fill="#E3160C"/>
<path d="M12.8503 7.4681C12.8503 7.62361 12.7242 7.74967 12.5687 7.74967C12.4132 7.74967 12.2871 7.62361 12.2871 7.4681C12.2871 7.31259 12.4132 7.18652 12.5687 7.18652C12.7242 7.18652 12.8503 7.31259 12.8503 7.4681Z" fill="#E3160C"/>
<path d="M12.9984 6.55827C12.9984 6.65085 12.9233 6.72591 12.8307 6.72591C12.7381 6.72591 12.6631 6.65085 12.6631 6.55827C12.6631 6.46568 12.7381 6.39062 12.8307 6.39062C12.9233 6.39062 12.9984 6.46568 12.9984 6.55827Z" fill="#E3160C"/>
<path d="M13.7777 6.09611C13.7777 6.1887 13.7026 6.26375 13.61 6.26375C13.5174 6.26375 13.4424 6.1887 13.4424 6.09611C13.4424 6.00352 13.5174 5.92847 13.61 5.92847C13.7026 5.92847 13.7777 6.00352 13.7777 6.09611Z" fill="#E3160C"/>
<path d="M11.1478 10.0968C11.1478 10.1894 11.0727 10.2645 10.9801 10.2645C10.8876 10.2645 10.8125 10.1894 10.8125 10.0968C10.8125 10.0043 10.8876 9.9292 10.9801 9.9292C11.0727 9.9292 11.1478 10.0043 11.1478 10.0968Z" fill="#E3160C"/>
<path d="M10.3353 10.6242C10.3353 10.7168 10.2602 10.7918 10.1676 10.7918C10.0751 10.7918 10 10.7168 10 10.6242C10 10.5316 10.0751 10.4565 10.1676 10.4565C10.2602 10.4565 10.3353 10.5316 10.3353 10.6242Z" fill="#E3160C"/>
<path d="M11.2435 8.97209C11.2435 9.06467 11.1684 9.13973 11.0758 9.13973C10.9833 9.13973 10.9082 9.06467 10.9082 8.97209C10.9082 8.8795 10.9833 8.80444 11.0758 8.80444C11.1684 8.80444 11.2435 8.8795 11.2435 8.97209Z" fill="#E3160C"/>
<path d="M11.9495 7.51042C11.9495 7.603 11.8745 7.67806 11.7819 7.67806C11.6893 7.67806 11.6143 7.603 11.6143 7.51042C11.6143 7.41783 11.6893 7.34277 11.7819 7.34277C11.8745 7.34277 11.9495 7.41783 11.9495 7.51042Z" fill="#E3160C"/>
<path d="M12.1777 8.45117C12.1777 8.65612 12.0116 8.82227 11.8066 8.82227C11.6017 8.82227 11.4355 8.65612 11.4355 8.45117C11.4355 8.24622 11.6017 8.08008 11.8066 8.08008C12.0116 8.08008 12.1777 8.24622 12.1777 8.45117Z" fill="#E3160C"/>
<path d="M13.9814 7.09717C13.9814 7.30212 13.8153 7.46826 13.6104 7.46826C13.4054 7.46826 13.2393 7.30212 13.2393 7.09717C13.2393 6.89222 13.4054 6.72607 13.6104 6.72607C13.8153 6.72607 13.9814 6.89222 13.9814 7.09717Z" fill="#E3160C"/>
<path d="M14.2874 8.18766C14.2874 8.29373 14.2014 8.37972 14.0954 8.37972C13.9893 8.37972 13.9033 8.29373 13.9033 8.18766C13.9033 8.08159 13.9893 7.99561 14.0954 7.99561C14.2014 7.99561 14.2874 8.08159 14.2874 8.18766Z" fill="#E3160C"/>
<path d="M13.6097 9.38883C13.6097 9.4949 13.5237 9.58089 13.4176 9.58089C13.3116 9.58089 13.2256 9.4949 13.2256 9.38883C13.2256 9.28276 13.3116 9.19678 13.4176 9.19678C13.5237 9.19678 13.6097 9.28276 13.6097 9.38883Z" fill="#E3160C"/>
<path d="M11.807 10.4565C11.807 10.5625 11.721 10.6485 11.6149 10.6485C11.5088 10.6485 11.4229 10.5625 11.4229 10.4565C11.4229 10.3504 11.5088 10.2644 11.6149 10.2644C11.721 10.2644 11.807 10.3504 11.807 10.4565Z" fill="#E3160C"/>
<path d="M14.1667 6.2488C14.1667 6.77804 12.3026 7.20708 10.0033 7.20708C7.70387 7.20708 5.83984 6.77804 5.83984 6.2488C5.83984 5.71956 7.70387 5.29053 10.0033 5.29053C12.3026 5.29053 14.1667 5.71956 14.1667 6.2488Z" fill="#C12F28"/>
<path fill-rule="evenodd" clip-rule="evenodd" d="M13.0404 7.33237C12.2481 7.51471 11.1745 7.62366 10.0029 7.62366C8.8314 7.62366 7.75771 7.51471 6.96549 7.33237C6.57273 7.24197 6.22611 7.12842 5.96754 6.98771C5.83848 6.91748 5.71169 6.83003 5.61271 6.71869C5.51144 6.60479 5.42285 6.4458 5.42285 6.24872C5.42285 6.05164 5.51144 5.89265 5.61271 5.77875C5.71169 5.66742 5.83848 5.57996 5.96754 5.50973C6.22611 5.36902 6.57273 5.25547 6.96549 5.16507C7.75771 4.98273 8.8314 4.87378 10.0029 4.87378C11.1745 4.87378 12.2481 4.98273 13.0404 5.16507C13.4331 5.25547 13.7797 5.36902 14.0383 5.50973C14.1674 5.57996 14.2942 5.66742 14.3932 5.77875C14.4944 5.89265 14.583 6.05164 14.583 6.24872C14.583 6.4458 14.4944 6.60479 14.3932 6.71869C14.2942 6.83003 14.1674 6.91748 14.0383 6.98771C13.7797 7.12842 13.4331 7.24197 13.0404 7.33237ZM10.0029 7.207C12.3023 7.207 14.1663 6.77796 14.1663 6.24872C14.1663 5.71948 12.3023 5.29045 10.0029 5.29045C7.70354 5.29045 5.83952 5.71948 5.83952 6.24872C5.83952 6.77796 7.70354 7.207 10.0029 7.207Z" fill="#6C0905"/>
<path d="M10.9961 6.39083C10.9961 6.69621 9.92053 6.94377 8.59375 6.94377C7.26697 6.94377 6.19141 6.69621 6.19141 6.39083C6.19141 6.08545 7.26697 5.83789 8.59375 5.83789C9.92053 5.83789 10.9961 6.08545 10.9961 6.39083Z" fill="#A91A13"/>
<path fill-rule="evenodd" clip-rule="evenodd" d="M10.7809 5.73874C10.79 5.62404 10.8904 5.53844 11.0051 5.54754C11.6597 5.59949 12.7402 5.73091 13.3995 6.00562C13.5057 6.04987 13.5559 6.17185 13.5117 6.27806C13.4674 6.38426 13.3454 6.43449 13.2392 6.39023C12.6485 6.14411 11.6301 6.01512 10.9721 5.9629C10.8574 5.9538 10.7718 5.85344 10.7809 5.73874Z" fill="#F93F35"/>
<path fill-rule="evenodd" clip-rule="evenodd" d="M6.34692 7.54412C6.4592 7.56924 6.52986 7.68061 6.50475 7.79289L6.50453 7.79391L6.5037 7.79767L6.5004 7.81293C6.49751 7.82639 6.49335 7.84616 6.48832 7.87093C6.47827 7.92053 6.46485 7.98978 6.45146 8.06816C6.42405 8.22856 6.39909 8.41402 6.39909 8.54821C6.39908 8.81833 6.46469 9.0771 6.66936 9.29883C6.7474 9.38338 6.74213 9.51518 6.65759 9.59322C6.57304 9.67126 6.44124 9.66599 6.36319 9.58145C6.06787 9.26151 5.98242 8.89007 5.98242 8.54821C5.98242 8.37641 6.01281 8.16148 6.04074 7.99799C6.05502 7.91443 6.06928 7.84085 6.07997 7.78812C6.08533 7.76171 6.08981 7.74044 6.09298 7.72565L6.0967 7.70846L6.09772 7.70381L6.09809 7.70215C6.09809 7.70213 6.09813 7.70195 6.30144 7.74743L6.09809 7.70215C6.12321 7.58986 6.23464 7.519 6.34692 7.54412Z" fill="#E8291F"/>
<path fill-rule="evenodd" clip-rule="evenodd" d="M6.97576 3.84447C7.0891 3.86432 7.16488 3.97229 7.14502 4.08563L6.83252 5.86948C6.81267 5.98281 6.7047 6.05859 6.59136 6.03874C6.47803 6.01889 6.40225 5.91092 6.4221 5.79758L6.73461 4.01373C6.75446 3.90039 6.86243 3.82461 6.97576 3.84447Z" fill="white"/>
</svg>
