<svg width="53" height="53" viewBox="0 0 53 53" fill="none" xmlns="http://www.w3.org/2000/svg">
<path d="M13.25 4.41663L6.625 13.25V44.1666C6.625 45.338 7.09033 46.4614 7.91861 47.2897C8.7469 48.118 9.87029 48.5833 11.0417 48.5833H41.9583C43.1297 48.5833 44.2531 48.118 45.0814 47.2897C45.9097 46.4614 46.375 45.338 46.375 44.1666V13.25L39.75 4.41663H13.25Z" stroke="#868E96" stroke-width="4.41667" stroke-linecap="round" stroke-linejoin="round"/>
<path d="M6.625 13.25H46.375" stroke="#868E96" stroke-width="4.41667" stroke-linecap="round" stroke-linejoin="round"/>
<path d="M35.3337 22.0834C35.3337 24.4261 34.403 26.6729 32.7464 28.3295C31.0899 29.9861 28.8431 30.9167 26.5003 30.9167C24.1576 30.9167 21.9108 29.9861 20.2542 28.3295C18.5976 26.6729 17.667 24.4261 17.667 22.0834" stroke="#868E96" stroke-width="4.41667" stroke-linecap="round" stroke-linejoin="round"/>
</svg>
