<svg width="18" height="19" viewBox="0 0 18 19" fill="none" xmlns="http://www.w3.org/2000/svg">
<path d="M8.9099 8.52766C8.11044 9.7116 7.46162 9.73072 7.25562 11.6267C7.0074 13.9113 8.56178 15.807 10.7051 16.0665C12.8484 16.326 14.7497 15.029 14.9979 12.7444C15.2039 10.8484 14.5164 10.5847 13.9349 9.19751C13.2903 7.65986 14.0522 5.64485 11.7884 5.37079C9.33058 5.07325 9.85077 7.13427 8.9099 8.52766Z" fill="#A4D31F"/>
<path fill-rule="evenodd" clip-rule="evenodd" d="M8.05849 8.96222C8.22983 8.77006 8.40663 8.56239 8.59163 8.28841C8.79205 7.9916 8.92131 7.64932 9.04037 7.27391C9.06614 7.19263 9.09197 7.1077 9.1184 7.02077C9.20743 6.72797 9.30335 6.4125 9.42756 6.13766C9.59648 5.76394 9.84039 5.40651 10.2519 5.17781C10.6575 4.95243 11.1732 4.88139 11.8328 4.96123C12.4547 5.03652 12.9185 5.23792 13.2536 5.5658C13.5874 5.89242 13.7513 6.30374 13.8476 6.71032C13.919 7.01141 13.9596 7.34374 13.9976 7.65444C14.0092 7.74951 14.0206 7.84255 14.0325 7.93205C14.0861 8.33375 14.1536 8.70092 14.2919 9.03074C14.4273 9.35377 14.5694 9.61293 14.7093 9.85692C14.7313 9.89537 14.7537 9.93402 14.7761 9.97289C14.8927 10.1745 15.0127 10.3821 15.113 10.6004C15.3686 11.1568 15.496 11.7772 15.3858 12.7914C15.1084 15.3444 12.9758 16.7565 10.6604 16.4762C8.32033 16.1929 6.59259 14.1087 6.86737 11.5798C6.97672 10.5733 7.21101 10.0184 7.55198 9.55672C7.68215 9.38048 7.82788 9.21865 7.96801 9.06302C7.99851 9.02915 8.02874 8.99558 8.05849 8.96222ZM8.24637 9.35246C8.4492 9.12707 8.67285 8.87853 8.90972 8.52773C9.20185 8.09511 9.35313 7.59812 9.49643 7.12735C9.81466 6.08188 10.0935 5.16571 11.7883 5.37087C13.347 5.55957 13.4712 6.57369 13.6078 7.68903C13.6696 8.19351 13.7339 8.7187 13.9347 9.19759C14.1041 9.60178 14.2826 9.91059 14.4453 10.1922C14.841 10.8771 15.1437 11.4009 14.9977 12.7445C14.7495 15.0291 12.8482 16.326 10.7049 16.0666C8.5616 15.8071 7.00722 13.9114 7.25545 11.6268C7.40041 10.2926 7.76466 9.88778 8.24637 9.35246Z" fill="#5B7C14"/>
<path fill-rule="evenodd" clip-rule="evenodd" d="M8.07803 14.5993C8.38874 14.8004 8.73189 14.9615 9.10178 15.0746C11.174 15.708 13.2537 14.7642 13.8597 12.5554C14.2161 11.2564 14.0004 10.6866 13.7185 9.9416C13.6027 9.63529 13.4755 9.29937 13.3724 8.871C13.2502 8.36346 13.2698 7.8343 13.2887 7.32601C13.3025 6.95301 13.3159 6.59124 13.2726 6.2575C13.4819 6.66197 13.5434 7.1642 13.6077 7.68883C13.6695 8.19331 13.7338 8.7185 13.9345 9.19739C14.104 9.60158 14.2824 9.91039 14.4451 10.192C14.8409 10.8769 15.1436 11.4007 14.9976 12.7443C14.7494 15.0289 12.8481 16.3258 10.7048 16.0664C9.63015 15.9363 8.70358 15.3949 8.07803 14.5993Z" fill="#92BC1B"/>
<path d="M9.94328 9.0741C10.3372 9.38066 10.2678 10.1855 9.78846 10.8717C9.30908 11.558 8.60118 11.8658 8.20731 11.5592C7.81344 11.2527 7.88275 10.4478 8.36213 9.76159C8.84151 9.07534 9.54941 8.76754 9.94328 9.0741Z" fill="#BBEB35"/>
<path d="M11.2205 5.74639C11.3567 5.90857 11.2614 6.2323 11.0078 6.46945C10.7542 6.7066 10.4382 6.76737 10.3021 6.60519C10.166 6.443 10.2613 6.11927 10.5149 5.88212C10.7685 5.64497 11.0844 5.5842 11.2205 5.74639Z" fill="#BBEB35"/>
<path fill-rule="evenodd" clip-rule="evenodd" d="M9.0476 10.0458C9.2039 10.2027 9.21007 10.4637 9.06137 10.6287C8.98823 10.7098 8.94645 10.7795 8.92379 10.836C8.83975 11.0458 8.61055 11.1439 8.41185 11.0552C8.21316 10.9665 8.12021 10.7245 8.20425 10.5148C8.27114 10.3479 8.37225 10.1969 8.49534 10.0603C8.64404 9.8953 8.89129 9.88879 9.0476 10.0458Z" fill="white"/>
<path d="M14.8391 3.29698C14.8391 3.29698 14.0686 4.4115 13.3431 4.70935C12.6176 5.0072 11.774 4.55536 11.774 4.55536C11.774 4.55536 12.1067 3.62061 12.8322 3.32275C13.5577 3.0249 14.8391 3.29698 14.8391 3.29698Z" fill="#87D623"/>
<path fill-rule="evenodd" clip-rule="evenodd" d="M15.1545 3.54L14.8389 3.29693L14.9159 2.8927C15.0465 2.92042 15.1547 3.01645 15.203 3.14747C15.2512 3.27849 15.233 3.42644 15.1545 3.54ZM14.3957 3.22661C14.6589 3.25872 14.8389 3.29693 14.8389 3.29693C14.8389 3.29693 14.7307 3.45348 14.5572 3.66491C14.2677 4.01763 13.7965 4.52308 13.3429 4.70931C12.6174 5.00716 11.7738 4.55531 11.7738 4.55531C11.7738 4.55531 12.1065 3.62056 12.832 3.32271C13.2856 3.13649 13.9565 3.17305 14.3957 3.22661ZM11.7738 4.55531C11.4081 4.41031 11.4082 4.41019 11.4082 4.41007L11.4083 4.40981L11.4085 4.40921L11.4091 4.40777L11.4105 4.40385C11.4116 4.40078 11.4131 4.39683 11.4149 4.39203C11.4185 4.38243 11.4235 4.36944 11.43 4.35345C11.4428 4.3215 11.4614 4.27736 11.4858 4.22426C11.5346 4.11855 11.6078 3.97464 11.7074 3.81947C11.9015 3.51701 12.2217 3.13085 12.6904 2.93843C13.1397 2.75395 13.7168 2.75551 14.1351 2.78684C14.3533 2.80317 14.5466 2.82931 14.6854 2.85133C14.755 2.86237 14.8114 2.87245 14.851 2.87989C14.8708 2.88362 14.8864 2.88668 14.8973 2.88889L14.9103 2.89152L14.914 2.8923L14.9156 2.89264L14.9159 2.8927C14.916 2.89272 14.9159 2.8927 14.8389 3.29693C15.1545 3.54 15.1545 3.53994 15.1545 3.54L15.1543 3.54026L15.1533 3.54165L15.151 3.54491L15.1432 3.55608C15.1365 3.56553 15.127 3.57892 15.1148 3.59578C15.0904 3.62948 15.0552 3.67714 15.011 3.73493C14.9227 3.85018 14.797 4.00731 14.6466 4.17491C14.3583 4.49634 13.9338 4.90911 13.4845 5.09359C13.0158 5.28601 12.5326 5.22968 12.1959 5.14514C12.0231 5.10176 11.877 5.04793 11.7734 5.00475C11.7214 4.98305 11.6795 4.96376 11.6495 4.94937C11.6346 4.94217 11.6225 4.93617 11.6137 4.93168C11.6093 4.92944 11.6057 4.92757 11.6029 4.92611L11.5994 4.92424L11.598 4.92354L11.5973 4.92313C11.5972 4.92307 11.5971 4.92301 11.7738 4.55531ZM11.4081 4.41031L11.7738 4.55531L11.5971 4.92301C11.4195 4.82791 11.3381 4.60706 11.4081 4.41031Z" fill="#156319"/>
<path d="M13.2955 4.59213C13.9123 4.33889 14.5813 3.42902 14.5813 3.42902C13.22 3.62466 12.2768 4.2238 11.9753 4.49892C11.9753 4.49892 12.6787 4.84537 13.2955 4.59213Z" fill="#79C01E"/>
<path d="M10.8422 3.30031C11.0804 3.43953 11.5774 4.54122 11.69 5.08391C11.6994 5.12919 11.8177 5.09736 11.81 5.05787C11.7935 4.56756 11.6422 3.37735 11.3798 2.95501C11.0205 2.93418 10.8546 3.19474 10.8422 3.30031Z" fill="#8C5936"/>
<path fill-rule="evenodd" clip-rule="evenodd" d="M10.6327 3.64876C10.5056 3.56392 10.4354 3.40884 10.4539 3.24992C10.4757 3.06359 10.591 2.88345 10.7333 2.76084C10.8946 2.62194 11.121 2.52716 11.4006 2.54336C11.5244 2.55054 11.6377 2.6194 11.7058 2.72891C11.8021 2.8839 11.8736 3.08205 11.9286 3.27315C11.9854 3.47078 12.0325 3.69019 12.0705 3.90545C12.1444 4.32369 12.1886 4.75353 12.1991 5.02367C12.2202 5.25097 12.0674 5.38574 12.0256 5.41801C11.9612 5.4676 11.8938 5.4923 11.8434 5.50456C11.794 5.51655 11.7177 5.52715 11.6318 5.50782C11.5496 5.48933 11.3574 5.4115 11.3078 5.17215C11.2612 4.94766 11.1242 4.57067 10.9621 4.22288C10.8825 4.05209 10.8025 3.90053 10.7324 3.78807C10.6972 3.73163 10.6683 3.69115 10.6468 3.66502C10.6405 3.65729 10.6358 3.65204 10.6327 3.64876ZM11.8094 5.05792C11.8094 5.05736 11.8094 5.0568 11.8093 5.05624C11.8061 4.96019 11.7976 4.83751 11.7842 4.69913C11.7601 4.44969 11.7199 4.14926 11.6645 3.86183C11.5935 3.4931 11.4977 3.14579 11.3791 2.95506C11.2744 2.94899 11.1861 2.96684 11.1132 2.9978C11.0358 3.03069 10.9758 3.07837 10.9321 3.12788C10.8759 3.19157 10.8465 3.25828 10.8416 3.30036C10.9558 3.36708 11.1293 3.6548 11.2916 3.99611C11.405 4.23489 11.513 4.49989 11.5911 4.7338C11.6313 4.85425 11.6637 4.96647 11.6848 5.06261C11.6864 5.06982 11.6879 5.07694 11.6894 5.08397C11.6988 5.12924 11.8171 5.09741 11.8094 5.05792ZM11.4185 5.05687C11.4185 5.08325 11.421 5.11129 11.4268 5.14095C11.4224 5.11844 11.4198 5.09558 11.419 5.07261C11.4189 5.06746 11.4187 5.06221 11.4185 5.05687Z" fill="#583A24"/>
<path d="M11.4554 3.00955C11.5102 3.11306 11.416 3.27865 11.2451 3.37941C11.0742 3.48017 10.8912 3.47794 10.8365 3.37443C10.7817 3.27092 10.8759 3.10533 11.0468 3.00457C11.2177 2.90381 11.4007 2.90604 11.4554 3.00955Z" fill="#C27A49"/>
<path d="M13.5898 11.5436C13.5685 11.7403 13.4 11.8815 13.2137 11.8589C13.0273 11.8364 12.8935 11.6586 12.9149 11.4619C12.9363 11.2651 13.1047 11.1239 13.2911 11.1465C13.4774 11.1691 13.6112 11.3468 13.5898 11.5436Z" fill="#83A918"/>
<path d="M14.5248 12.3785C14.5034 12.5753 14.335 12.7165 14.1486 12.6939C13.9623 12.6713 13.8285 12.4936 13.8499 12.2968C13.8713 12.1001 14.0397 11.9589 14.226 11.9815C14.4124 12.004 14.5462 12.1818 14.5248 12.3785Z" fill="#83A918"/>
<path d="M14.4819 11.2004C14.4658 11.348 14.3395 11.4539 14.1997 11.4369C14.06 11.42 13.9596 11.2867 13.9757 11.1391C13.9917 10.9916 14.118 10.8857 14.2578 10.9026C14.3976 10.9195 14.4979 11.0529 14.4819 11.2004Z" fill="#83A918"/>
<path d="M14.3894 13.6253C14.368 13.822 14.1996 13.9632 14.0132 13.9406C13.8268 13.9181 13.6931 13.7403 13.7144 13.5436C13.7358 13.3468 13.9042 13.2056 14.0906 13.2282C14.277 13.2508 14.4107 13.4285 14.3894 13.6253Z" fill="#83A918"/>
<path d="M13.4544 12.7903C13.433 12.987 13.2646 13.1282 13.0782 13.1057C12.8918 13.0831 12.7581 12.9053 12.7794 12.7086C12.8008 12.5119 12.9692 12.3707 13.1556 12.3932C13.342 12.4158 13.4757 12.5936 13.4544 12.7903Z" fill="#83A918"/>
<path d="M13.5983 14.6122C13.577 14.8089 13.4085 14.9501 13.2222 14.9276C13.0358 14.905 12.902 14.7272 12.9234 14.5305C12.9448 14.3338 13.1132 14.1926 13.2996 14.2151C13.4859 14.2377 13.6197 14.4155 13.5983 14.6122Z" fill="#83A918"/>
<path d="M12.644 13.9553C12.6226 14.152 12.4542 14.2932 12.2678 14.2707C12.0814 14.2481 11.9477 14.0703 11.9691 13.8736C11.9904 13.6769 12.1588 13.5357 12.3452 13.5583C12.5316 13.5808 12.6654 13.7586 12.644 13.9553Z" fill="#83A918"/>
<path d="M12.6676 15.3115C12.6516 15.4591 12.5252 15.565 12.3855 15.5481C12.2457 15.5311 12.1454 15.3978 12.1614 15.2503C12.1774 15.1027 12.3037 14.9968 12.4435 15.0137C12.5833 15.0307 12.6836 15.164 12.6676 15.3115Z" fill="#83A918"/>
<path d="M7.42578 7.9088C7.42578 7.9088 7.38648 9.23963 6.90726 9.83091C6.32967 10.5436 5.21773 10.2755 5.21773 10.2755C5.21773 10.2755 5.13515 9.22181 5.79203 8.51774C6.29732 7.97614 7.42578 7.9088 7.42578 7.9088Z" fill="#10BC17"/>
<path fill-rule="evenodd" clip-rule="evenodd" d="M7.71633 7.91846L7.42576 7.90889L7.40935 7.60253C7.49075 7.59767 7.57033 7.62911 7.6287 7.68918C7.68707 7.74926 7.71887 7.83244 7.71633 7.91846ZM7.13323 7.94343C7.30876 7.91588 7.42576 7.90889 7.42576 7.90889C7.42576 7.90889 7.42214 8.03129 7.40374 8.21834C7.36146 8.64807 7.24112 9.41904 6.90724 9.831C6.32965 10.5437 5.21771 10.2756 5.21771 10.2756C5.21771 10.2756 5.13513 9.2219 5.79201 8.51783C6.1346 8.15063 6.76365 8.00143 7.13323 7.94343ZM5.21771 10.2756C4.928 10.3009 4.92799 10.3008 4.92798 10.3007L4.92796 10.3004L4.92791 10.2998L4.92781 10.2984L4.92753 10.2944C4.92731 10.2912 4.92704 10.287 4.92675 10.2818C4.92617 10.2714 4.92548 10.2572 4.92491 10.2394C4.92376 10.2038 4.92304 10.1539 4.92445 10.0925C4.92726 9.97004 4.93859 9.79979 4.97265 9.60502C5.04018 9.21895 5.20122 8.71374 5.58488 8.30252C5.89857 7.96628 6.37683 7.79847 6.73268 7.71134C6.91766 7.66605 7.08495 7.63905 7.20602 7.62332C7.26674 7.61543 7.31634 7.61031 7.3513 7.60712C7.3688 7.60553 7.38267 7.60442 7.39248 7.60369C7.39739 7.60332 7.40128 7.60305 7.40411 7.60286L7.40755 7.60264L7.40906 7.60254L7.40935 7.60253C7.40942 7.60252 7.40935 7.60253 7.42576 7.90889C7.71633 7.91846 7.71633 7.91839 7.71633 7.91846L7.71631 7.91914L7.71627 7.92031L7.71614 7.92409C7.71603 7.92724 7.71587 7.93164 7.71564 7.93723C7.71518 7.94841 7.71446 7.96435 7.71338 7.98455C7.71122 8.02493 7.7076 8.08244 7.70172 8.15298C7.68999 8.29368 7.66909 8.48812 7.63227 8.70287C7.56154 9.11532 7.422 9.6679 7.12814 10.0305C6.76494 10.4786 6.24776 10.6026 5.8632 10.6268C5.66687 10.6392 5.49216 10.6266 5.36668 10.6111C5.30361 10.6033 5.25213 10.5947 5.21556 10.5878C5.19725 10.5843 5.18262 10.5813 5.17207 10.579C5.16679 10.5779 5.16252 10.5769 5.15933 10.5762L5.15534 10.5753L5.15395 10.575L5.15319 10.5748C5.15308 10.5748 5.15298 10.5747 5.21771 10.2756ZM4.928 10.3009L5.21771 10.2756L5.15298 10.5747C5.02946 10.545 4.93844 10.4342 4.928 10.3009Z" fill="#156319"/>
<path d="M6.71202 9.77912C7.11683 9.34523 7.22991 8.25601 7.22991 8.25601C6.19417 8.90452 5.73523 9.82645 5.5967 10.1673C5.5967 10.1673 6.30722 10.213 6.71202 9.77912Z" fill="#07A00E"/>
<path d="M3.0258 9.50702C3.0258 9.50702 3.89747 9.05921 4.44993 9.19179C5.11578 9.3516 5.34076 10.2459 5.34076 10.2459C5.34076 10.2459 4.69129 10.6821 4.0026 10.4623C3.47285 10.2932 3.0258 9.50702 3.0258 9.50702Z" fill="#13CA1B"/>
<path fill-rule="evenodd" clip-rule="evenodd" d="M2.89879 9.23114L3.02601 9.50706L2.77676 9.66498C2.7348 9.59119 2.72412 9.50221 2.74733 9.41971C2.77053 9.33722 2.82549 9.2688 2.89879 9.23114ZM3.19413 9.76298C3.08838 9.61674 3.02601 9.50706 3.02601 9.50706C3.02601 9.50706 3.13364 9.45176 3.29724 9.38578C3.5992 9.264 4.09181 9.10583 4.45013 9.19183C5.11598 9.35163 5.34097 10.2459 5.34097 10.2459C5.34097 10.2459 4.69149 10.6821 4.00281 10.4623C3.67093 10.3564 3.37151 10.0083 3.19413 9.76298ZM5.34097 10.2459C5.49702 10.5048 5.49693 10.5049 5.49684 10.5049L5.49665 10.505L5.49622 10.5053L5.49517 10.506L5.49235 10.5079C5.49015 10.5093 5.48731 10.5112 5.48384 10.5134C5.47692 10.5178 5.46749 10.5237 5.45571 10.5308C5.43217 10.5449 5.39911 10.564 5.35775 10.5856C5.27534 10.6287 5.15824 10.683 5.01649 10.7295C4.73616 10.8216 4.33835 10.89 3.91867 10.756C3.57051 10.6449 3.28075 10.3481 3.09568 10.1218C2.99841 10.0028 2.91973 9.89027 2.8653 9.80747C2.83798 9.76591 2.81648 9.73141 2.80153 9.7068C2.79405 9.69448 2.78819 9.68461 2.78403 9.67753L2.77909 9.66904L2.77759 9.66644L2.77709 9.66556L2.77676 9.66498C2.77672 9.66492 2.77676 9.66498 3.02601 9.50706C2.89879 9.23114 2.89874 9.23117 2.89879 9.23114L2.89933 9.23087L2.90018 9.23043L2.90284 9.22908L2.91186 9.22455C2.91949 9.22075 2.93029 9.21543 2.94398 9.20885C2.97134 9.19569 3.01034 9.17741 3.05862 9.15609C3.15484 9.11358 3.28959 9.05821 3.44359 9.00703C3.73592 8.90987 4.15698 8.80678 4.51458 8.89261C4.95911 8.99929 5.23673 9.34539 5.39403 9.62004C5.47477 9.76103 5.53078 9.89495 5.5667 9.9934C5.58477 10.0429 5.59806 10.0844 5.60706 10.1143C5.61157 10.1292 5.61502 10.1414 5.61748 10.1503C5.61871 10.1548 5.61969 10.1585 5.62043 10.1613L5.62136 10.1649L5.62169 10.1662L5.62188 10.1669C5.62191 10.167 5.62193 10.1671 5.34097 10.2459ZM5.49702 10.5048L5.34097 10.2459L5.62193 10.1671C5.65445 10.2964 5.60392 10.433 5.49702 10.5048Z" fill="#156319"/>
<path fill-rule="evenodd" clip-rule="evenodd" d="M3.15916 9.44415C3.07579 9.48129 3.02596 9.50689 3.02596 9.50689C3.02596 9.50689 3.473 10.293 4.00276 10.4621C4.69145 10.6819 5.34092 10.2457 5.34092 10.2457C5.34092 10.2457 5.28727 10.0325 5.15483 9.79564C4.93907 9.92501 4.47023 10.1479 3.95833 10.0233C3.64933 9.94816 3.35456 9.66892 3.15916 9.44415Z" fill="#33ED3B"/>
<path d="M8.94854 12.7153C9.29753 14.5508 8.17077 16.3374 6.43187 16.7058C4.69297 17.0742 3.0004 15.8848 2.65142 14.0493C2.30244 12.2138 3.42919 10.4272 5.16809 10.0588C6.907 9.69047 8.59956 10.8798 8.94854 12.7153Z" fill="#FE9F81"/>
<path fill-rule="evenodd" clip-rule="evenodd" d="M9.23399 12.6549C9.61457 14.6566 8.38582 16.6049 6.4895 17.0067C4.59318 17.4084 2.7474 16.1114 2.36682 14.1097C1.98625 12.108 3.215 10.1597 5.11132 9.75798C7.00764 9.35626 8.85342 10.6533 9.23399 12.6549ZM6.4323 16.7058C8.1712 16.3374 9.29795 14.5508 8.94897 12.7153C8.59999 10.8798 6.90742 9.69047 5.16852 10.0588C3.42962 10.4272 2.30287 12.2138 2.65185 14.0493C3.00083 15.8848 4.6934 17.0742 6.4323 16.7058Z" fill="#AB442D"/>
<path fill-rule="evenodd" clip-rule="evenodd" d="M7.71884 16.1016C6.75195 16.1486 5.62855 15.3733 4.94489 14.084C4.10225 12.4949 4.23936 10.713 5.23897 10.0448C5.21541 10.0492 5.19183 10.0539 5.16825 10.0589C3.42935 10.4273 2.30259 12.2139 2.65157 14.0494C3.00056 15.8849 4.69312 17.0742 6.43202 16.7059C6.91416 16.6037 7.34923 16.3926 7.71884 16.1016Z" fill="#FF7E6C"/>
<path d="M6.01682 10.3978C6.44114 10.5336 6.62872 11.1883 6.43578 11.8601C6.24284 12.532 5.74244 12.9666 5.31812 12.8308C4.89379 12.695 4.70621 12.0403 4.89915 11.3685C5.0921 10.6966 5.59249 10.262 6.01682 10.3978Z" fill="#FEC0AC"/>
<path fill-rule="evenodd" clip-rule="evenodd" d="M5.42951 11.437C5.58472 11.4803 5.67725 11.6483 5.63618 11.8121C5.60815 11.9239 5.60404 12.0296 5.62111 12.1323C5.64886 12.2992 5.54317 12.4582 5.38503 12.4875C5.2269 12.5168 5.0762 12.4053 5.04845 12.2384C5.01614 12.0441 5.02561 11.8486 5.07411 11.6551C5.11518 11.4913 5.27429 11.3936 5.42951 11.437Z" fill="white"/>
<path fill-rule="evenodd" clip-rule="evenodd" d="M5.13208 9.97927C5.50846 9.73383 5.94242 9.68735 6.31568 9.73966C6.39526 9.75081 6.45121 9.82794 6.44064 9.91194C6.43008 9.99594 6.357 10.055 6.27742 10.0438C5.95135 9.99815 5.58956 10.0416 5.28487 10.2403C4.98425 10.4364 4.72106 10.7952 4.60719 11.4194C4.37594 12.6868 4.8507 13.72 5.10571 14.0656C5.15503 14.1325 5.14368 14.2289 5.08034 14.281C5.01701 14.333 4.92568 14.321 4.87635 14.2542C4.57981 13.8523 4.07179 12.7312 4.32173 11.3613C4.44844 10.6668 4.75164 10.2274 5.13208 9.97927Z" fill="#AB442D"/>
<path d="M6.11338 16.0033C6.22709 16.1317 6.22062 16.3331 6.09892 16.4532C5.97723 16.5732 5.7864 16.5664 5.67269 16.4379C5.55898 16.3095 5.56545 16.108 5.68714 15.988C5.80884 15.868 5.99967 15.8748 6.11338 16.0033Z" fill="#EC6B59"/>
<path d="M7.02256 15.7015C7.13627 15.83 7.1298 16.0314 7.0081 16.1514C6.88641 16.2714 6.69558 16.2646 6.58187 16.1362C6.46816 16.0077 6.47463 15.8063 6.59632 15.6862C6.71802 15.5662 6.90885 15.573 7.02256 15.7015Z" fill="#EC6B59"/>
<path d="M6.44124 14.9648C6.52948 15.0645 6.52446 15.2208 6.43001 15.3139C6.33557 15.4071 6.18748 15.4018 6.09923 15.3021C6.01099 15.2024 6.01601 15.0461 6.11045 14.9529C6.20489 14.8598 6.35299 14.8651 6.44124 14.9648Z" fill="#EC6B59"/>
<path d="M7.60432 15.4245C7.69257 15.5242 7.68754 15.6805 7.5931 15.7736C7.49866 15.8668 7.35056 15.8615 7.26232 15.7618C7.17408 15.6621 7.1791 15.5058 7.27354 15.4126C7.36798 15.3195 7.51608 15.3248 7.60432 15.4245Z" fill="#EC6B59"/>
<path d="M5.55549 15.193C5.64374 15.2927 5.63871 15.4491 5.54427 15.5422C5.44983 15.6353 5.30174 15.63 5.21349 15.5304C5.12525 15.4307 5.13027 15.2743 5.22471 15.1812C5.31915 15.088 5.46725 15.0934 5.55549 15.193Z" fill="#EC6B59"/>
<path d="M4.32502 14.8884C4.41327 14.988 4.40825 15.1444 4.3138 15.2375C4.21936 15.3307 4.07127 15.3254 3.98302 15.2257C3.89478 15.126 3.8998 14.9697 3.99424 14.8765C4.08868 14.7834 4.23678 14.7887 4.32502 14.8884Z" fill="#EC6B59"/>
<path d="M7.83186 14.6152C7.9201 14.7148 7.91508 14.8712 7.82064 14.9643C7.7262 15.0575 7.5781 15.0522 7.48986 14.9525C7.40161 14.8528 7.40664 14.6965 7.50108 14.6033C7.59552 14.5102 7.74362 14.5155 7.83186 14.6152Z" fill="#EC6B59"/>
<path d="M5.19221 16.0021C5.28046 16.1018 5.27543 16.2581 5.18099 16.3513C5.08655 16.4444 4.93845 16.4391 4.85021 16.3394C4.76197 16.2397 4.76699 16.0834 4.86143 15.9903C4.95587 15.8971 5.10397 15.9024 5.19221 16.0021Z" fill="#EC6B59"/>
<path d="M4.88154 15.3163C4.92614 15.3666 4.9236 15.4456 4.87586 15.4927C4.82813 15.5398 4.75328 15.5371 4.70868 15.4867C4.66408 15.4364 4.66662 15.3573 4.71436 15.3103C4.76209 15.2632 4.83694 15.2659 4.88154 15.3163Z" fill="#EC6B59"/>
<path d="M3.62568 14.9305C3.67028 14.9809 3.66774 15.0599 3.62001 15.107C3.57227 15.1541 3.49742 15.1514 3.45283 15.101C3.40823 15.0506 3.41076 14.9716 3.4585 14.9245C3.50623 14.8774 3.58108 14.8801 3.62568 14.9305Z" fill="#EC6B59"/>
<path d="M8.24384 15.0477C8.28844 15.0981 8.2859 15.1771 8.23817 15.2242C8.19044 15.2712 8.11559 15.2686 8.07099 15.2182C8.02639 15.1678 8.02893 15.0888 8.07666 15.0417C8.12439 14.9946 8.19924 14.9973 8.24384 15.0477Z" fill="#EC6B59"/>
<path d="M7.16083 14.8077C7.20543 14.8581 7.20289 14.9371 7.15516 14.9842C7.10743 15.0313 7.03258 15.0286 6.98798 14.9782C6.94338 14.9278 6.94592 14.8488 6.99365 14.8017C7.04138 14.7546 7.11623 14.7573 7.16083 14.8077Z" fill="#EC6B59"/>
<path d="M8.41474 14.3856C8.45934 14.436 8.4568 14.515 8.40907 14.5621C8.36134 14.6091 8.28649 14.6065 8.24189 14.5561C8.19729 14.5057 8.19983 14.4267 8.24756 14.3796C8.29529 14.3325 8.37014 14.3352 8.41474 14.3856Z" fill="#EC6B59"/>
<path d="M4.44714 15.5664C4.52079 15.6496 4.5166 15.7801 4.43777 15.8578C4.35895 15.9356 4.23534 15.9311 4.16168 15.8479C4.08803 15.7647 4.09222 15.6342 4.17105 15.5565C4.24987 15.4787 4.37348 15.4832 4.44714 15.5664Z" fill="#EC6B59"/>
</svg>
