<svg width="19" height="20" viewBox="0 0 19 20" fill="none" xmlns="http://www.w3.org/2000/svg">
<path d="M10.5053 6.75635C6.73241 7.79087 3.96025 9.74403 2.24506 12.4954C0.52987 15.2467 2.1787 17.0402 4.93211 16.808C7.68552 16.5758 12.2966 15.0166 15.05 12.9599C17.8035 10.9031 17.6707 9.44345 17.2063 8.3819C16.7419 7.32034 14.6188 5.62842 10.5053 6.75635Z" fill="#FAB13D"/>
<path fill-rule="evenodd" clip-rule="evenodd" d="M1.90891 12.2858C3.68586 9.43538 6.54946 7.43035 10.4004 6.37443C14.6429 5.21112 17.0027 6.92939 17.5687 8.22306C17.8245 8.8078 18.0047 9.54396 17.7099 10.4233C17.421 11.2855 16.6953 12.2246 15.2867 13.2768C13.8692 14.3357 11.9902 15.2556 10.1273 15.9396C8.26475 16.6233 6.38776 17.0823 4.96513 17.2023C3.51534 17.3245 2.24527 16.9225 1.58988 15.9995C0.918827 15.0545 1.00631 13.7337 1.90891 12.2858ZM2.24482 12.4952C3.96 9.74385 6.73217 7.79069 10.505 6.75617C14.6186 5.62825 16.7416 7.32017 17.2061 8.38172C17.6705 9.44328 17.8032 10.9029 15.0498 12.9597C12.2964 15.0165 7.68528 16.5756 4.93187 16.8078C2.17846 17.0401 0.52963 15.2466 2.24482 12.4952Z" fill="#B7690D"/>
<path d="M5.20544 9.91902C3.65556 10.8675 2.67072 12.0967 2.2605 13.5457C1.85028 14.9947 2.81742 15.5821 4.01597 15.1231C5.21453 14.6642 5.4912 13.2592 6.4543 11.9862C7.4174 10.7131 8.45921 10.2304 8.45921 9.5324C8.45921 8.99377 6.89527 8.88489 5.20544 9.91902Z" fill="#FCC66F"/>
<path fill-rule="evenodd" clip-rule="evenodd" d="M4.62072 11.3271C4.78271 11.4739 4.79502 11.7243 4.64822 11.8863C4.05082 12.5455 3.79449 13.1126 3.59682 13.5499C3.57272 13.6033 3.54949 13.6547 3.52662 13.7041C3.43477 13.9024 3.1995 13.9888 3.00111 13.897C2.80273 13.8051 2.71636 13.5698 2.80821 13.3715C2.8295 13.3255 2.85174 13.2761 2.87538 13.2237C3.07592 12.7787 3.3776 12.1094 4.06161 11.3546C4.20841 11.1926 4.45873 11.1803 4.62072 11.3271Z" fill="#FFDFAD"/>
<path fill-rule="evenodd" clip-rule="evenodd" d="M3.51953 16.7329C6.55842 16.1224 10.5432 14.5981 13.097 12.6904C16.172 10.3934 16.0238 8.76329 15.5051 7.57775C15.3719 7.27343 15.1168 6.92274 14.7333 6.59082C16.1378 6.96646 16.9417 7.77656 17.2065 8.38178C17.6709 9.44334 17.8036 10.903 15.0502 12.9598C12.2968 15.0165 7.68567 16.5757 4.93226 16.8079C4.41789 16.8513 3.94207 16.824 3.51953 16.7329Z" fill="#EDA024"/>
<path d="M7.58633 13.0924C6.84324 11.6328 4.64494 10.8698 3.63867 10.6707C4.01022 10.0603 4.76657 9.55388 5.09831 9.37695C6.71718 10.3854 7.43152 12.2741 7.58633 13.0924Z" fill="#D08814"/>
<path d="M10.9279 11.7768C10.0601 9.80177 8.059 8.26522 7.05273 8.06618C7.6961 7.52754 8.95034 7.24065 9.28208 7.06372C11.1374 8.06618 10.7731 10.9585 10.9279 11.7768Z" fill="#A56112"/>
<path d="M14.1894 9.50259C13.3814 7.48272 12.3976 7.05885 11.5311 6.50978C11.9899 6.31568 13.1727 6.36084 13.546 6.31568C14.324 7.39294 14.324 8.26075 14.1894 9.50259Z" fill="#9C5807"/>
<path fill-rule="evenodd" clip-rule="evenodd" d="M4.94394 9.39353C4.96699 9.28668 5.07229 9.21875 5.17914 9.24179C5.61786 9.33642 6.17474 9.69333 6.68568 10.2893C7.20114 10.8905 7.68255 11.7488 7.96277 12.8736C7.9892 12.9796 7.92464 13.087 7.81857 13.1135C7.71251 13.1399 7.60511 13.0753 7.57868 12.9693C7.31279 11.902 6.85908 11.0996 6.38517 10.5469C5.90674 9.98888 5.42002 9.69869 5.09568 9.62873C4.98883 9.60568 4.9209 9.50038 4.94394 9.39353Z" fill="#FFDFAC"/>
<path fill-rule="evenodd" clip-rule="evenodd" d="M9.38859 7.02615C9.45069 6.93621 9.57396 6.91364 9.6639 6.97574C10.0236 7.22413 10.4352 7.78856 10.7558 8.57302C11.0797 9.36541 11.3204 10.4045 11.3204 11.6272C11.3204 11.7365 11.2318 11.8251 11.1225 11.8251C11.0132 11.8251 10.9245 11.7365 10.9245 11.6272C10.9245 10.456 10.6939 9.46775 10.3894 8.72279C10.0817 7.9699 9.70767 7.48698 9.439 7.30147C9.34905 7.23937 9.32648 7.1161 9.38859 7.02615Z" fill="#FFDFAC"/>
<path fill-rule="evenodd" clip-rule="evenodd" d="M13.543 6.28738C13.6124 6.20292 13.7371 6.19069 13.8216 6.26007C14.1817 6.55589 14.4365 7.0586 14.5729 7.62338C14.7103 8.19283 14.7337 8.85025 14.6083 9.4814C14.587 9.58861 14.4828 9.65825 14.3756 9.63694C14.2684 9.61563 14.1987 9.51144 14.22 9.40423C14.334 8.83094 14.3125 8.23155 14.1881 7.71626C14.0626 7.19629 13.8386 6.78632 13.5703 6.56595C13.4859 6.49656 13.4737 6.37185 13.543 6.28738Z" fill="#FFDFAC"/>
<path d="M14.1402 12.0851C14.0894 12.2925 13.924 12.4303 13.7709 12.3928C13.6178 12.3553 13.5348 12.1566 13.5857 11.9492C13.6365 11.7417 13.8019 11.6039 13.955 11.6414C14.1082 11.679 14.1911 11.8776 14.1402 12.0851Z" fill="#D48A15"/>
<path d="M12.7702 12.6062C12.7289 12.7748 12.5946 12.8867 12.4702 12.8562C12.3458 12.8257 12.2784 12.6644 12.3197 12.4958C12.361 12.3273 12.4954 12.2154 12.6198 12.2459C12.7442 12.2764 12.8115 12.4377 12.7702 12.6062Z" fill="#D48A15"/>
<path d="M13.7507 13.1148C13.7094 13.2833 13.5751 13.3952 13.4507 13.3648C13.3263 13.3343 13.2589 13.1729 13.3002 13.0044C13.3415 12.8358 13.4758 12.7239 13.6002 12.7544C13.7246 12.7849 13.792 12.9462 13.7507 13.1148Z" fill="#D48A15"/>
<path d="M13.4011 11.2303C13.3598 11.3988 13.2255 11.5107 13.1011 11.4802C12.9767 11.4498 12.9093 11.2884 12.9506 11.1199C12.9919 10.9513 13.1262 10.8394 13.2506 10.8699C13.375 10.9004 13.4424 11.0617 13.4011 11.2303Z" fill="#D48A15"/>
<path d="M15.1052 11.6609C15.0639 11.8295 14.9296 11.9414 14.8052 11.9109C14.6808 11.8804 14.6134 11.7191 14.6547 11.5505C14.696 11.382 14.8303 11.2701 14.9547 11.3006C15.0791 11.331 15.1465 11.4924 15.1052 11.6609Z" fill="#D48A15"/>
<path d="M14.6219 10.9711C14.5754 11.1611 14.4239 11.2873 14.2836 11.253C14.1433 11.2186 14.0673 11.0366 14.1139 10.8466C14.1605 10.6565 14.312 10.5303 14.4522 10.5647C14.5925 10.5991 14.6685 10.781 14.6219 10.9711Z" fill="#D48A15"/>
<path d="M16.1483 11.0809C16.1017 11.271 15.9502 11.3972 15.81 11.3628C15.6697 11.3285 15.5937 11.1465 15.6403 10.9564C15.6869 10.7664 15.8383 10.6402 15.9786 10.6745C16.1189 10.7089 16.1949 10.8909 16.1483 11.0809Z" fill="#D48A15"/>
<path d="M15.7713 10.2682C15.7248 10.4583 15.5733 10.5845 15.433 10.5501C15.2927 10.5157 15.2167 10.3338 15.2633 10.1437C15.3099 9.95364 15.4614 9.82743 15.6017 9.86181C15.742 9.89618 15.8179 10.0781 15.7713 10.2682Z" fill="#D48A15"/>
<path d="M17.0887 10.139C17.0421 10.3291 16.8907 10.4553 16.7504 10.4209C16.6101 10.3866 16.5341 10.2046 16.5807 10.0146C16.6273 9.82449 16.7788 9.69828 16.919 9.73265C17.0593 9.76703 17.1353 9.94898 17.0887 10.139Z" fill="#D48A15"/>
<path d="M15.7226 11.9124C15.6921 12.0368 15.593 12.1194 15.5012 12.0969C15.4094 12.0744 15.3596 11.9553 15.3901 11.8309C15.4206 11.7065 15.5197 11.624 15.6115 11.6464C15.7033 11.6689 15.7531 11.788 15.7226 11.9124Z" fill="#D48A15"/>
<path d="M14.6894 12.6905C14.6589 12.8149 14.5598 12.8975 14.468 12.875C14.3762 12.8525 14.3264 12.7334 14.3569 12.609C14.3874 12.4846 14.4865 12.402 14.5783 12.4245C14.6701 12.447 14.7199 12.5661 14.6894 12.6905Z" fill="#D48A15"/>
<path d="M11.8544 14.209C11.8239 14.3334 11.7248 14.416 11.633 14.3935C11.5412 14.371 11.4915 14.2519 11.522 14.1276C11.5524 14.0032 11.6516 13.9206 11.7434 13.9431C11.8352 13.9656 11.8849 14.0846 11.8544 14.209Z" fill="#D48A15"/>
<path d="M12.9306 13.4607C12.9001 13.5851 12.801 13.6677 12.7092 13.6452C12.6174 13.6227 12.5677 13.5037 12.5981 13.3793C12.6286 13.2549 12.7277 13.1723 12.8196 13.1948C12.9114 13.2173 12.9611 13.3364 12.9306 13.4607Z" fill="#D48A15"/>
<path d="M12.1356 13.3092C12.1108 13.4104 12.0302 13.4775 11.9556 13.4592C11.8809 13.4409 11.8405 13.3441 11.8653 13.243C11.8901 13.1418 11.9707 13.0746 12.0453 13.0929C12.12 13.1112 12.1604 13.2081 12.1356 13.3092Z" fill="#D48A15"/>
<path d="M12.4882 11.7608C12.4577 11.8852 12.3586 11.9678 12.2668 11.9453C12.175 11.9228 12.1253 11.8037 12.1557 11.6793C12.1862 11.5549 12.2854 11.4723 12.3772 11.4948C12.469 11.5173 12.5187 11.6364 12.4882 11.7608Z" fill="#D48A15"/>
<path d="M14.0292 10.4686C13.9987 10.5929 13.8996 10.6755 13.8078 10.653C13.716 10.6305 13.6663 10.5115 13.6968 10.3871C13.7272 10.2627 13.8264 10.1801 13.9182 10.2026C14.01 10.2251 14.0597 10.3442 14.0292 10.4686Z" fill="#D48A15"/>
<path d="M15.0458 9.64531C15.0153 9.76969 14.9162 9.85229 14.8244 9.82979C14.7326 9.8073 14.6829 9.68822 14.7134 9.56384C14.7438 9.43946 14.843 9.35686 14.9348 9.37936C15.0266 9.40186 15.0763 9.52093 15.0458 9.64531Z" fill="#D48A15"/>
<path d="M16.1767 9.44536C16.1462 9.56974 16.0471 9.65234 15.9553 9.62984C15.8635 9.60734 15.8137 9.48827 15.8442 9.36389C15.8747 9.2395 15.9738 9.15691 16.0656 9.17941C16.1575 9.2019 16.2072 9.32098 16.1767 9.44536Z" fill="#D48A15"/>
<path d="M16.8896 9.36382C16.8591 9.4882 16.76 9.5708 16.6682 9.5483C16.5764 9.5258 16.5266 9.40673 16.5571 9.28235C16.5876 9.15796 16.6867 9.07537 16.7785 9.09786C16.8703 9.12036 16.9201 9.23943 16.8896 9.36382Z" fill="#D48A15"/>
</svg>
