<svg width="13" height="13" viewBox="0 0 12 13" fill="none" xmlns="http://www.w3.org/2000/svg">
<path d="M11.3017 10.8881L9.06372 8.65015C8.95182 8.56063 8.81755 8.49349 8.68327 8.49349H8.3252C8.92944 7.7102 9.3099 6.7255 9.3099 5.62891C9.3099 3.07764 7.20622 0.973957 4.65495 0.973957C2.0813 0.973957 0 3.07764 0 5.62891C0 8.20255 2.0813 10.2839 4.65495 10.2839C5.72917 10.2839 6.71387 9.92578 7.51953 9.29915V9.67961C7.51953 9.81388 7.56429 9.94816 7.67619 10.0601L9.89177 12.2756C10.1156 12.4994 10.4513 12.4994 10.6527 12.2756L11.2793 11.649C11.5031 11.4476 11.5031 11.1119 11.3017 10.8881ZM4.65495 8.49349C3.066 8.49349 1.79036 7.21785 1.79036 5.62891C1.79036 4.06234 3.066 2.76432 4.65495 2.76432C6.22152 2.76432 7.51953 4.06234 7.51953 5.62891C7.51953 7.21785 6.22152 8.49349 4.65495 8.49349Z" fill="#FF2253"/>
</svg>
