<svg width="9" height="11" viewBox="0 0 9 11" fill="none" xmlns="http://www.w3.org/2000/svg">
<path d="M8.4375 0.875H6.09375L5.89844 0.523438C5.82031 0.367188 5.66406 0.25 5.48828 0.25H3.24219C3.06641 0.25 2.91016 0.367188 2.83203 0.523438L2.65625 0.875H0.3125C0.136719 0.875 0 1.03125 0 1.1875V1.8125C0 1.98828 0.136719 2.125 0.3125 2.125H8.4375C8.59375 2.125 8.75 1.98828 8.75 1.8125V1.1875C8.75 1.03125 8.59375 0.875 8.4375 0.875ZM1.03516 9.37109C1.05469 9.87891 1.46484 10.25 1.97266 10.25H6.75781C7.26562 10.25 7.67578 9.87891 7.69531 9.37109L8.125 2.75H0.625L1.03516 9.37109Z" fill="#868E96"/>
</svg>
